<svg xmlns="http://www.w3.org/2000/svg" viewBox="0 0 24 24"><path d="M22.628 20.25H1.372c-.443 0-.862-.217-1.123-.582a.496.496 0 0 1 .121-.7l21.467-14.97a1.381 1.381 0 0 1 1.915.338c.158.235.242.496.248.763V18.879c0 .755-.616 1.371-1.372 1.371zm-20.914-1h20.914a.373.373 0 0 0 .372-.372V5.118a.376.376 0 0 0-.591-.299L1.714 19.25z"/><path d="M.5 19.4a.502.502 0 0 1-.5-.5V5.11a1.368 1.368 0 0 1 1.136-1.339c.343-.061.688.009.979.196a.555.555 0 0 1 .048.029l8.843 6.157a.498.498 0 0 1 .03.797L.816 19.287A.496.496 0 0 1 .5 19.4zm.875-14.65A.371.371 0 0 0 1 5.116v12.731l8.89-7.252-8.261-5.752a.538.538 0 0 1-.04-.025.37.37 0 0 0-.214-.068z"/></svg>