<svg width="59" height="59" viewBox="0 0 59 59" fill="none" xmlns="http://www.w3.org/2000/svg">
<path fill-rule="evenodd" clip-rule="evenodd" d="M25.8193 5.01795C25.4909 4.32955 25.4163 3.54724 25.6088 2.80921C25.8013 2.07117 26.2484 1.4249 26.8711 0.984538C27.4939 0.544175 28.2522 0.338059 29.0122 0.402595C29.7722 0.467131 30.4849 0.798167 31.0245 1.33723L35.6583 5.97317L35.7229 5.90848C36.314 5.31679 37.0673 4.91386 37.8876 4.75073C38.7078 4.5876 39.558 4.67162 40.3304 4.99214C41.1029 5.31267 41.7628 5.85527 42.2266 6.55119C42.6903 7.24712 42.9371 8.06505 42.9356 8.90136C42.9356 10.0226 42.4914 11.0964 41.6979 11.8899L41.6375 11.9503L43.0154 13.3281H55.375C56.2323 13.3298 57.054 13.6712 57.6602 14.2774C58.2664 14.8835 58.6077 15.7052 58.6094 16.5625V44.5938C58.6077 45.451 58.2664 46.2727 57.6602 46.8789C57.054 47.4851 56.2323 47.8264 55.375 47.8281H35.7984L36.165 50.0167C37.5596 50.0675 38.8802 50.6572 39.849 51.6618C40.8178 52.6663 41.3592 54.0075 41.3594 55.403V57.5593C41.3594 57.8452 41.2458 58.1195 41.0436 58.3216C40.8414 58.5238 40.5672 58.6374 40.2812 58.6374H18.7188C18.4328 58.6374 18.1586 58.5238 17.9564 58.3216C17.7542 58.1195 17.6406 57.8452 17.6406 57.5593V55.403C17.6408 54.0075 18.1822 52.6663 19.151 51.6618C20.1198 50.6572 21.4404 50.0675 22.835 50.0167L23.2016 47.8281H3.625C2.76772 47.8264 1.94603 47.4851 1.33984 46.8789C0.733647 46.2727 0.392334 45.451 0.390625 44.5938V16.5625C0.392334 15.7052 0.733647 14.8835 1.33984 14.2774C1.94603 13.6712 2.76772 13.3298 3.625 13.3281H20.3014L20.972 11.3142C21.4483 9.88513 22.2508 8.58657 23.3159 7.52136L25.8193 5.01795ZM35.9688 52.1687H23.0312C22.1734 52.1687 21.3508 52.5094 20.7442 53.116C20.1376 53.7226 19.7969 54.5452 19.7969 55.403V56.4812H39.2031V55.403C39.2034 54.9782 39.1199 54.5575 38.9575 54.165C38.7951 53.7724 38.5568 53.4158 38.2564 53.1154C37.956 52.815 37.5994 52.5767 37.2068 52.4143C36.8143 52.2519 36.3936 52.1684 35.9688 52.1687ZM25.0236 50.0124H33.9764L33.6141 47.8281H25.3859L25.0236 50.0124ZM56.4531 43.5437H2.54688V44.5938C2.54688 44.8805 2.66116 45.1544 2.86169 45.3571C3.0648 45.5583 3.33905 45.6715 3.625 45.6719H55.375C55.6618 45.6719 55.9356 45.5576 56.1383 45.3571C56.3396 45.154 56.4527 44.8797 56.4531 44.5938V43.5437ZM45.1716 15.4844L46.2713 16.5841C46.8772 17.1921 47.2201 18.0137 47.2201 18.8719C47.2203 19.4185 47.082 19.9562 46.8181 20.4349C46.5543 20.9136 46.1733 21.3176 45.711 21.6092C45.2487 21.9007 44.72 22.0704 44.1743 22.1023C43.6286 22.1341 43.0837 22.0272 42.5906 21.7914L40.0872 24.2927C39.0226 25.3585 37.7238 26.1611 36.2943 26.6365L29.321 28.9631L28.7367 29.5453L34.0734 34.882C34.204 35.0116 34.2992 35.1726 34.3498 35.3495C34.4005 35.5263 34.405 35.7133 34.3628 35.8924C34.3206 36.0715 34.2332 36.2368 34.1089 36.3724C33.9846 36.5081 33.8277 36.6097 33.6529 36.6674L29.0795 38.1919C28.8894 38.2553 28.6855 38.2644 28.4904 38.2183C28.2954 38.1723 28.1171 38.0727 27.9755 37.931L24.1633 34.1187L23.4021 34.882C22.7947 35.4874 21.972 35.8274 21.1143 35.8274C20.2567 35.8274 19.434 35.4874 18.8266 34.882L12.7287 28.782C12.1229 28.1752 11.7826 27.3527 11.7826 26.4953C11.7826 25.6378 12.1229 24.8154 12.7287 24.2086L18.6476 18.2897L19.5812 15.4844H3.625C3.33905 15.4848 3.0648 15.5979 2.86169 15.7992C2.66041 16.0023 2.5473 16.2766 2.54688 16.5625V41.3874H56.4531V16.5625C56.4527 16.2766 56.3396 16.0023 56.1383 15.7992C55.9352 15.5979 55.6609 15.4848 55.375 15.4844H45.1716ZM25.6877 32.5942L29.0278 35.9343L31.3156 35.1731L27.2122 31.0698L25.6877 32.5942ZM19.5899 20.3963L14.2532 25.733C14.051 25.9352 13.9375 26.2094 13.9375 26.4953C13.9375 26.7812 14.051 27.0553 14.2532 27.2575L20.351 33.3575C20.5543 33.5576 20.8281 33.6697 21.1133 33.6697C21.3985 33.6697 21.6722 33.5576 21.8755 33.3575L27.2122 28.0208L19.5899 20.3963ZM27.2122 6.67395L24.8403 9.04583C24.0126 9.8746 23.3889 10.8844 23.0183 11.9956L20.8232 18.5808L29.0278 26.7874L35.613 24.5924C36.7245 24.2216 37.7344 23.597 38.5627 22.7682L40.9346 20.3963L27.2122 6.67395ZM44.7468 19.6352C44.949 19.433 45.0625 19.1588 45.0625 18.8729C45.0625 18.5871 44.949 18.3129 44.7468 18.1107L29.5 2.8617C29.2967 2.66167 29.023 2.54956 28.7378 2.54956C28.4526 2.54956 28.1788 2.66167 27.9755 2.8617C27.8751 2.96185 27.7955 3.08082 27.7411 3.2118C27.6868 3.34278 27.6588 3.4832 27.6588 3.62501C27.6588 3.76682 27.6868 3.90724 27.7411 4.03822C27.7955 4.16921 27.8751 4.28818 27.9755 4.38833L43.2224 19.6352C43.4257 19.8352 43.6994 19.9473 43.9846 19.9473C44.2698 19.9473 44.5436 19.8352 44.7468 19.6352ZM40.1131 10.4258L40.1734 10.3655C40.3658 10.1732 40.5183 9.94498 40.6224 9.69376C40.7265 9.44255 40.7801 9.17328 40.7801 8.90136C40.7801 8.62943 40.7265 8.36017 40.6224 8.10895C40.5183 7.85774 40.3658 7.62949 40.1734 7.43726L40.1691 7.43295C39.9774 7.24082 39.7497 7.08838 39.4991 6.98438C39.2484 6.88037 38.9797 6.82683 38.7083 6.82683C38.4369 6.82683 38.1681 6.88037 37.9175 6.98438C37.6668 7.08838 37.4391 7.24082 37.2474 7.43295L37.1827 7.49764L40.1131 10.4258Z" fill="#E60168"/>
</svg>
