<svg width="64" height="64" viewBox="0 0 64 64" fill="none" xmlns="http://www.w3.org/2000/svg">
<g clip-path="url(#clip0_1_21)">
<path d="M21.3351 32C21.3351 26.1092 26.1092 21.3325 32 21.3325C37.8908 21.3325 42.6675 26.1092 42.6675 32C42.6675 37.8908 37.8908 42.6675 32 42.6675C26.1092 42.6675 21.3351 37.8908 21.3351 32ZM15.5683 32C15.5683 41.0753 22.9247 48.4317 32 48.4317C41.0753 48.4317 48.4317 41.0753 48.4317 32C48.4317 22.9247 41.0753 15.5683 32 15.5683C22.9247 15.5683 15.5683 22.9247 15.5683 32ZM45.242 14.917C45.242 17.0365 46.9609 18.758 49.083 18.758C51.2026 18.758 52.9241 17.0365 52.9241 14.917C52.9241 12.7974 51.2052 11.0785 49.083 11.0785C46.9609 11.0785 45.242 12.7974 45.242 14.917ZM19.0708 58.0472C15.9509 57.905 14.2553 57.3855 13.1283 56.946C11.6342 56.3645 10.5693 55.6717 9.4475 54.5525C8.32827 53.4333 7.63296 52.3683 7.05396 50.8743C6.61454 49.7473 6.09499 48.0517 5.95283 44.9318C5.79774 41.5586 5.76672 40.5454 5.76672 32C5.76672 23.4546 5.80032 22.4439 5.95283 19.0682C6.09499 15.9483 6.61712 14.2553 7.05396 13.1257C7.63554 11.6317 8.32827 10.5667 9.4475 9.44491C10.5667 8.32569 11.6317 7.63037 13.1283 7.05137C14.2553 6.61195 15.9509 6.09241 19.0708 5.95024C22.4439 5.79515 23.4572 5.76414 32 5.76414C40.5454 5.76414 41.5561 5.79774 44.9318 5.95024C48.0517 6.09241 49.7447 6.61454 50.8743 7.05137C52.3683 7.63037 53.4333 8.32569 54.5551 9.44491C55.6743 10.5641 56.367 11.6317 56.9486 13.1257C57.388 14.2527 57.9076 15.9483 58.0498 19.0682C58.2048 22.4439 58.2359 23.4546 58.2359 32C58.2359 40.5428 58.2048 41.5561 58.0498 44.9318C57.9076 48.0517 57.3855 49.7473 56.9486 50.8743C56.367 52.3683 55.6743 53.4333 54.5551 54.5525C53.4359 55.6717 52.3683 56.3645 50.8743 56.946C49.7473 57.3855 48.0517 57.905 44.9318 58.0472C41.5586 58.2023 40.5454 58.2333 32 58.2333C23.4572 58.2333 22.4439 58.2023 19.0708 58.0472M18.8071 0.193861C15.4003 0.34895 13.074 0.889176 11.0397 1.68013C8.9357 2.49693 7.15218 3.59289 5.37124 5.37124C3.59289 7.1496 2.49693 8.93312 1.68013 11.0397C0.889176 13.074 0.34895 15.4003 0.193861 18.8071C0.0361874 22.2191 0 23.3099 0 32C0 40.6901 0.0361874 41.7809 0.193861 45.1929C0.34895 48.5997 0.889176 50.926 1.68013 52.9603C2.49693 55.0643 3.59031 56.8504 5.37124 58.6288C7.1496 60.4071 8.93312 61.5005 11.0397 62.3199C13.0766 63.1108 15.4003 63.6511 18.8071 63.8061C22.2216 63.9612 23.3099 64 32 64C40.6927 64 41.7809 63.9638 45.1929 63.8061C48.5997 63.6511 50.926 63.1108 52.9603 62.3199C55.0643 61.5005 56.8478 60.4071 58.6288 58.6288C60.4071 56.8504 61.5005 55.0643 62.3199 52.9603C63.1108 50.926 63.6536 48.5997 63.8061 45.1929C63.9612 41.7784 63.9974 40.6901 63.9974 32C63.9974 23.3099 63.9612 22.2191 63.8061 18.8071C63.6511 15.4003 63.1108 13.074 62.3199 11.0397C61.5005 8.9357 60.4071 7.15218 58.6288 5.37124C56.8504 3.59289 55.0643 2.49693 52.9628 1.68013C50.926 0.889176 48.5997 0.346365 45.1955 0.193861C41.7835 0.0387722 40.6927 0 32.0026 0C23.3099 0 22.2216 0.0361874 18.8071 0.193861" fill="#8998C2"/>
</g>
<defs>
<clipPath id="clip0_1_21">
<rect width="64" height="64" fill="white"/>
</clipPath>
</defs>
</svg>
