<svg width="50" height="50" viewBox="0 0 50 50" fill="none" xmlns="http://www.w3.org/2000/svg">
<path d="M43.2431 40.6718C46.9159 36.3999 48.9689 30.9721 49.0427 25.3389C49.1165 19.7057 47.2064 14.226 43.6469 9.85933C41.3986 7.07802 38.558 4.83352 35.3321 3.2895C32.1062 1.74549 28.5764 0.940871 25 0.934326C21.4395 0.93508 17.9235 1.72658 14.7062 3.25167C11.4888 4.77675 8.65026 6.99735 6.39562 9.75308C6.39562 9.75308 6.39562 9.75308 6.39562 9.8062C2.8341 14.172 0.922761 19.6521 0.996583 25.2858C1.07041 30.9196 3.12468 36.3477 6.79937 40.6187C6.81944 40.6455 6.83721 40.6739 6.8525 40.7037H6.91625C9.15599 43.3111 11.9296 45.407 15.0495 46.8496C18.1694 48.2922 21.5628 49.0479 25 49.0656C28.4368 49.0645 31.8334 48.326 34.9604 46.9C38.0874 45.474 40.872 43.3936 43.1262 40.7993H43.19L43.2431 40.6718ZM3.1125 26.0625H10.7094C10.8579 29.3491 11.5769 32.5848 12.8344 35.625C11.9767 35.9618 11.1394 36.3485 10.3269 36.7831C9.41212 37.2782 8.54125 37.8505 7.72375 38.4937C4.93277 34.9295 3.32107 30.5846 3.1125 26.0625ZM7.26687 12.1331C7.98643 12.7539 8.75778 13.3119 9.5725 13.8012C10.5113 14.3539 11.4877 14.8403 12.4944 15.2568C11.444 18.0378 10.8415 20.9677 10.7094 23.9375H3.1125C3.31466 19.6814 4.75889 15.5777 7.26687 12.1331ZM46.8875 23.9375H39.2906C39.2906 23.5762 39.2906 23.2043 39.2906 22.875C39.2877 20.2193 38.8387 17.5831 37.9625 15.0762C39.6742 14.3456 41.2677 13.3645 42.6906 12.165C45.2079 15.5958 46.6668 19.6879 46.8875 23.9375ZM37.2081 22.875C37.2081 23.2362 37.2081 23.6081 37.2081 23.9375H26.0625V17.5625C29.4522 17.4834 32.8111 16.8997 36.0287 15.8306C36.804 18.0985 37.2024 20.4782 37.2081 22.875ZM26.0625 15.4375V3.74995C30.1212 6.05513 33.3431 9.58954 35.2637 13.8437C32.2905 14.8198 29.1908 15.3567 26.0625 15.4375ZM23.9375 15.4375C21.0043 15.3648 18.0946 14.893 15.2887 14.035C17.1028 9.83397 20.11 6.25784 23.9375 3.74995V15.4375ZM23.9375 17.5625V23.9375H12.8344C12.9643 21.2195 13.5163 18.5382 14.4706 15.99C17.5363 16.9579 20.7235 17.4874 23.9375 17.5625ZM12.8344 26.0625H23.9375V33.5C20.8627 33.5732 17.8113 34.0556 14.8637 34.9343C13.677 32.1174 12.9903 29.1152 12.8344 26.0625ZM23.9375 35.625V46.0693C20.4261 43.809 17.6005 40.6306 15.7669 36.8787C18.425 36.1103 21.1713 35.6888 23.9375 35.625ZM26.0625 45.9843V35.625C28.5988 35.6908 31.1193 36.0473 33.5744 36.6875C31.7956 40.3171 29.2292 43.5042 26.0625 46.0162V45.9843ZM26.0625 33.5V26.0625H36.985C36.5703 29.076 35.7333 32.0161 34.4987 34.7962C31.7508 34.0184 28.9172 33.583 26.0625 33.5ZM39.1206 26.0625H46.8875C46.6754 30.604 45.0482 34.9656 42.2337 38.5362C41.6598 38.076 41.0564 37.6536 40.4275 37.2718C39.1906 36.5464 37.8887 35.9382 36.5387 35.4549C37.8305 32.4589 38.6994 29.2978 39.1206 26.0625ZM41.405 10.4756C40.1538 11.5456 38.75 12.4229 37.24 13.0787C35.5689 9.29593 32.9573 6.00393 29.6537 3.5162C34.2101 4.53021 38.3257 6.96755 41.405 10.4756ZM20.6862 3.49495C17.5022 6.15317 14.9781 9.51374 13.3125 13.3125C12.402 12.949 11.5211 12.5156 10.6775 12.0162C9.9238 11.5804 9.21239 11.0753 8.5525 10.5075C11.7227 6.90758 15.9844 4.44463 20.6862 3.49495ZM9.15812 40.1406C9.86339 39.6041 10.6054 39.1177 11.3787 38.685C12.1496 38.2824 12.9444 37.9276 13.7587 37.6225C15.4516 41.0785 17.8773 44.1241 20.8669 46.5475C16.3928 45.6809 12.3001 43.4414 9.15812 40.1406ZM28.7612 46.59C31.6228 43.9957 33.9538 40.8709 35.625 37.3887C36.8981 37.8376 38.1255 38.4069 39.2906 39.0887C39.8152 39.4163 40.3223 39.7709 40.81 40.1512C37.5817 43.5256 33.3606 45.7813 28.7612 46.59Z" fill="black"/>
</svg>
