<svg width="64" height="64" viewBox="0 0 64 64" fill="none" xmlns="http://www.w3.org/2000/svg">
<g clip-path="url(#clip0_1_23)">
<path d="M0 7.43439C0 5.27947 0.720741 3.5017 2.16216 2.10107C3.60358 0.700375 5.4775 6.10352e-05 7.78378 6.10352e-05C10.0489 6.10352e-05 11.8816 0.689579 13.2819 2.06874C14.7233 3.49096 15.444 5.34412 15.444 7.62833C15.444 9.69702 14.7439 11.4209 13.3436 12.8C11.9022 14.2223 10.0077 14.9334 7.66023 14.9334H7.59846C5.33331 14.9334 3.50066 14.2223 2.10039 12.8C0.700108 11.3778 0 9.58925 0 7.43439ZM0.803089 64V20.8162H14.5174V64H0.803089ZM22.1158 64H35.8301V39.8869C35.8301 38.3784 35.9949 37.2148 36.3243 36.396C36.9009 34.9306 37.7761 33.6915 38.9498 32.6788C40.1236 31.666 41.5959 31.1596 43.3668 31.1596C47.9794 31.1596 50.2857 34.4135 50.2857 40.9212V64H64V39.2404C64 32.8619 62.5586 28.0243 59.6757 24.7273C56.7928 21.4303 52.9833 19.7818 48.2471 19.7818C42.9344 19.7818 38.7954 22.1738 35.8301 26.9576V27.0869H35.7683L35.8301 26.9576V20.8162H22.1158C22.1982 22.1953 22.2394 26.4835 22.2394 33.6808C22.2394 40.8781 22.1982 50.9844 22.1158 64Z" fill="#8998C2"/>
</g>
<defs>
<clipPath id="clip0_1_23">
<rect width="64" height="64" fill="white"/>
</clipPath>
</defs>
</svg>
