<svg xmlns="http://www.w3.org/2000/svg" viewBox="0 0 100 100"><path d="M38.59 18.41c-.78-.78-.78-2.05 0-2.83l10-10c.09-.09.2-.18.31-.25.04-.03.1-.05.15-.08.06-.03.12-.07.18-.1.07-.03.14-.04.21-.07.05-.02.11-.04.16-.05.14-.02.27-.03.4-.03h.01c.13 0 .26.01.38.04.06.01.12.03.18.05.07.02.13.03.2.06s.13.07.2.1c.05.03.1.05.15.08.11.07.21.16.31.25l10 10c.78.78.78 2.05 0 2.83-.41.39-.92.59-1.43.59s-1.02-.2-1.41-.59L52 11.83V29c0 1.1-.9 2-2 2s-2-.9-2-2V11.83l-6.59 6.59c-.39.38-.9.58-1.41.58s-1.02-.2-1.41-.59zM7 29c1.1 0 2-.9 2-2v-9.17l12.59 12.59c.39.38.9.58 1.41.58s1.02-.2 1.41-.59c.78-.78.78-2.05 0-2.83L11.83 15H21c1.1 0 2-.9 2-2s-.9-2-2-2H7c-.13 0-.26.01-.39.04-.06.01-.11.03-.17.05-.07.02-.14.04-.2.06-.07.03-.13.06-.19.1-.05.03-.11.05-.16.09-.22.15-.41.33-.55.55-.03.05-.05.1-.08.15-.03.06-.07.12-.1.19s-.04.13-.06.2c-.02.06-.04.11-.05.17-.04.14-.05.27-.05.4v14c0 1.1.9 2 2 2zm87.96-16.39c-.01-.06-.03-.11-.05-.17-.02-.07-.04-.14-.06-.2-.03-.07-.07-.13-.1-.19-.03-.05-.05-.1-.08-.15-.15-.22-.34-.41-.55-.55-.05-.03-.1-.05-.15-.08-.06-.04-.13-.07-.2-.1s-.13-.04-.2-.06c-.06-.02-.11-.04-.17-.05-.14-.05-.27-.06-.4-.06H79c-1.1 0-2 .9-2 2s.9 2 2 2h9.17L75.59 27.59c-.78.78-.78 2.05 0 2.83.39.38.9.58 1.41.58s1.02-.2 1.41-.59L91 17.83V27c0 1.1.9 2 2 2s2-.9 2-2V13c0-.13-.01-.26-.04-.39zM95 45v42c0 4.41-3.59 8-8 8H13c-4.41 0-8-3.59-8-8V45c0-4.41 3.59-8 8-8h74c4.41 0 8 3.59 8 8zm-82-4c-.23 0-.45.03-.66.07L50 70.46l37.66-29.4c-.21-.03-.43-.06-.66-.06H13zm78 4c0-.45-.09-.88-.23-1.28L51.23 74.58a2.012 2.012 0 0 1-2.46 0L9.23 43.72c-.14.4-.23.83-.23 1.28v42c0 2.21 1.79 4 4 4h74c2.21 0 4-1.79 4-4V45z"/></svg>