<svg width="64" height="64" viewBox="0 0 64 64" fill="none" xmlns="http://www.w3.org/2000/svg">
<path d="M58.6666 15.4667C56.6621 16.3363 54.5424 16.9111 52.3732 17.1733C54.6617 15.8062 56.3766 13.6554 57.1999 11.12C55.0494 12.4002 52.6953 13.3021 50.2399 13.7867C48.5987 12.0069 46.4132 10.8221 44.0261 10.4183C41.639 10.0144 39.1854 10.4143 37.05 11.5552C34.9147 12.6961 33.2184 14.5134 32.2272 16.7222C31.236 18.9311 31.006 21.4064 31.5733 23.76C27.2251 23.5401 22.9718 22.4079 19.0897 20.437C15.2076 18.4661 11.7835 15.7005 9.03992 12.32C8.07762 14.0005 7.57197 15.9035 7.57325 17.84C7.56984 19.6384 8.01116 21.4097 8.85793 22.9962C9.7047 24.5827 10.9306 25.9352 12.4266 26.9333C10.6879 26.886 8.98628 26.4195 7.46659 25.5733V25.7067C7.47962 28.2264 8.36257 30.6643 9.96609 32.6079C11.5696 34.5516 13.7953 35.8817 16.2666 36.3733C15.3153 36.6629 14.3276 36.8155 13.3333 36.8267C12.645 36.8186 11.9584 36.7562 11.2799 36.64C11.9837 38.8075 13.3456 40.7017 15.1761 42.0591C17.0067 43.4165 19.2148 44.1695 21.4933 44.2133C17.6458 47.2407 12.8956 48.893 7.99992 48.9067C7.10855 48.9096 6.21788 48.8562 5.33325 48.7467C10.3317 51.974 16.1568 53.6873 22.1066 53.68C26.2124 53.7226 30.2856 52.9467 34.0882 51.3976C37.8908 49.8484 41.3466 47.557 44.2538 44.6573C47.1609 41.7576 49.4612 38.3077 51.0201 34.5091C52.579 30.7105 53.3654 26.6393 53.3332 22.5333C53.3332 22.08 53.3332 21.6 53.3332 21.12C55.4258 19.5595 57.2305 17.6465 58.6666 15.4667V15.4667Z" fill="#8998C2"/>
</svg>
