<svg xmlns="http://www.w3.org/2000/svg" data-name="Layer 1" viewBox="0 0 64 64"><path d="M29.143 6.616A16.9 16.9 0 0 1 32 6.372a16.656 16.656 0 0 1 11.855 4.911 1 1 0 1 0 1.415-1.414A18.643 18.643 0 0 0 32 4.372a18.83 18.83 0 0 0-3.2.274 1 1 0 1 0 .34 1.97Z"/><path d="M60.357 36a18.782 18.782 0 0 0-9.637-11.866c.017-.331.046-.661.047-1A18.681 18.681 0 0 0 47.7 12.858a1 1 0 0 0-1.672 1.1 16.688 16.688 0 0 1 2.735 9.183c0 .045-.006.089-.007.135a18.63 18.63 0 0 0-6.519-1.188A18.8 18.8 0 0 0 32 25.125a18.692 18.692 0 0 0-1.762-1.02 1 1 0 0 0-.9 1.787q.474.238.929.508a18.959 18.959 0 0 0-6.54 11.315A16.829 16.829 0 0 1 20.144 35a16.629 16.629 0 0 1-4.747-9.63 16.882 16.882 0 0 1 10.713-.7 1 1 0 0 0 .518-1.932 18.88 18.88 0 0 0-11.387.558c0-.05-.008-.1-.008-.148a16.791 16.791 0 0 1 9.433-15.092 1 1 0 0 0-.875-1.8A18.791 18.791 0 0 0 13.233 23.14c0 .335.032.665.049 1a18.569 18.569 0 0 0-3.527 2.3 1 1 0 0 0 1.279 1.538 16.44 16.44 0 0 1 2.478-1.7 18.621 18.621 0 0 0 5.217 10.132 18.824 18.824 0 0 0 4.758 3.45 18.008 18.008 0 0 0 0 2.036 1.013 1.013 0 0 0 1.054.942 1 1 0 0 0 .942-1.054q-.025-.47-.025-.937c0-.042.007-.084.007-.126a18.588 18.588 0 0 0 13.072 0c0 .043.005.086.005.129A16.786 16.786 0 0 1 32 54.138a16.8 16.8 0 0 1-5.967-8.938 1 1 0 1 0-1.931.518 18.785 18.785 0 0 0 6.159 9.582A16.765 16.765 0 0 1 7.878 31.46a1 1 0 1 0-1.656-1.121A18.765 18.765 0 0 0 32 56.584a18.756 18.756 0 0 0 3.745 1.888 1 1 0 1 0 .695-1.872 16.775 16.775 0 0 1-2.719-1.3 18.738 18.738 0 0 0 6.821-14.456c0-.327-.019-.656-.036-.985a18.829 18.829 0 0 0 4.765-3.453 18.609 18.609 0 0 0 4.181-6.359 18.678 18.678 0 0 0 1.037-3.769 16.766 16.766 0 0 1-9.455 31.308 1 1 0 0 0-.142 1.995q.659.047 1.325.047A18.753 18.753 0 0 0 60.357 36ZM32 39.907a16.739 16.739 0 0 1-6.378-1.253 16.923 16.923 0 0 1 6.2-10.947c.06-.047.124-.085.184-.131a16.8 16.8 0 0 1 6.358 10.839c.012.077.016.156.026.234A16.747 16.747 0 0 1 32 39.907Zm15.593-10.592A16.624 16.624 0 0 1 43.856 35a16.82 16.82 0 0 1-3.587 2.72 18.791 18.791 0 0 0-6.521-11.3A16.62 16.62 0 0 1 48.6 25.358a16.674 16.674 0 0 1-1.007 3.957Z"/></svg>