<svg xmlns="http://www.w3.org/2000/svg" viewBox="0 0 64 64"><g data-name="programming-web-coding"><path d="M61 4H3a1 1 0 0 0-1 1v45a1 1 0 0 0 1 1h10v10a1 1 0 0 0 1 1h30a1 1 0 0 0 1-1v-2h3a1 1 0 0 0 1-1v-7h12a1 1 0 0 0 1-1V5a1 1 0 0 0-1-1ZM4 6h56v6H4Zm11 54V22h20v7a1 1 0 0 0 1 1h7v6.929l-9.879 9.879a.985.985 0 0 0-.241.391l-2.828 8.485A1 1 0 0 0 31 57a1.014 1.014 0 0 0 .316-.051L39.8 54.12a.991.991 0 0 0 .39-.242L43 51.071V60Zm25.2-8.96-.727-.707a1 1 0 0 0-.373-.233l-.587-.2 10.872-10.871 1.415 1.415ZM37 23.414 41.586 28H37ZM46.556 36.2l1.415 1.414-10.877 10.878-.2-.587a.988.988 0 0 0-.241-.391l-.707-.707ZM33.205 52.548l1.247 1.252-1.871.624Zm3.368.54-2.661-2.661.707-2.122.457.457.633 1.9a1 1 0 0 0 .632.632l1.9.635.463.449Zm15.64-14.058-4.243-4.244 1.415-1.414 4.243 4.243Zm2.829-2.83L50.8 31.958l.707-.707a3 3 0 0 1 4.243 4.243ZM47 32.929l-2 2V29a1 1 0 0 0-.293-.707l-8-8A1 1 0 0 0 36 20H18v-2h29ZM45 57v-7.929l2-2V57Zm4-8v-3.929l8.163-8.163a5 5 0 0 0-7.071-7.071L49 30.929V17a1 1 0 0 0-1-1H17a1 1 0 0 0-1 1v3h-2a1 1 0 0 0-1 1v28H4V14h56v35Z"/><path d="M6 8h2v2H6zM10 8h2v2h-2zM14 8h2v2h-2zM19.293 33.707l1.414-1.414L19.414 31l1.293-1.293-1.414-1.414-2 2a1 1 0 0 0 0 1.414ZM22.2 32.4l3-4 1.6 1.2-3 4zM29.707 33.707l2-2a1 1 0 0 0 0-1.414l-2-2-1.414 1.414L29.586 31l-1.293 1.293ZM17 36h4v2h-4zM23 36h8v2h-8zM19 40h2v2h-2zM23 40h5v2h-5zM21 44h4v2h-4zM27 44h5v2h-5zM30 40h5v2h-5zM33 36h2v2h-2zM33 32h2v2h-2z"/></g></svg>