<svg width="64" height="64" viewBox="0 0 64 64" fill="none" xmlns="http://www.w3.org/2000/svg">
<g clip-path="url(#clip0_1_27)">
<path d="M26.506 44.9479C14.3175 44.7233 10.1545 44.5212 7.5957 43.9934C5.86449 43.6427 4.36007 42.8641 3.25699 41.7347C2.40445 40.88 1.72645 39.576 1.20044 37.7667C0.749232 36.2594 0.573498 35.0052 0.32296 31.9418C-0.0605659 25.0281 -0.151995 19.3756 0.32296 13.0597C0.714797 9.57194 0.904779 5.43152 3.50753 3.01598C4.73647 1.88548 6.16609 1.15797 7.77144 0.857215C10.2792 0.380527 20.9633 0.00369263 32.0238 0.00369263C43.0594 0.00369263 53.7672 0.380527 56.2774 0.857215C58.2829 1.23405 60.1637 2.36336 61.2679 3.81958C63.6427 7.55938 63.6843 12.2098 63.9253 15.8473C64.0251 17.5805 64.0251 27.4222 63.9253 29.1554C63.5501 34.9042 63.2485 36.9381 62.396 39.047C61.8688 40.3784 61.4187 41.0809 60.6398 41.8596C59.4182 43.0578 57.8608 43.8548 56.1752 44.1443C45.6277 44.9384 36.6712 45.1108 26.506 44.9479V44.9479ZM42.658 21.8482C36.79 18.7087 31.1713 15.7974 25.4279 12.7839V30.8125C31.4717 27.5232 37.8432 24.5098 42.683 21.8232L42.658 21.8482Z" fill="#8998C2"/>
</g>
<defs>
<clipPath id="clip0_1_27">
<rect width="64" height="64" fill="white"/>
</clipPath>
</defs>
</svg>
